# xmcd
#
# Track frame offsets:
#   150
#   12369
#   24881
#   41697
#   53131
#   68406
#   82738
#   98918
#   116372
#   131906
#   149468
#   165946
#   179801
#   192683
#   205409
#   219372
#   231478
#   247231
#   262581
#   275410
#
# Disc length: 3866 seconds
#
# Revision: 0
# Processed by: cddbd v1.5.1PL0 Copyright (c) Steve Scherf et al.
# Submitted via: Media_Universe 3.0
#
DISCID=1e0f1814
DTITLE=Mark Chesnutt - What A Way To Love - Too Cold At Home
DYEAR=1900
DGENRE=Country
TTITLE0=What A Way To Live
TTITLE1=Live A Little
TTITLE2=She Dreams
TTITLE3=Going Through The Big D
TTITLE4=Down In Tennessee
TTITLE5=Gonna Get A Life
TTITLE6=Its Almost Like Youre Here
TTITLE7=Rainy Day Woman
TTITLE8=This Side Of The Door
TTITLE9=Half Of Everything (and all of my heart)
TTITLE10=Too Cold At Home
TTITLE11=Brother Jukebox
TTITLE12=Blame It On Texas
TTITLE13=Your Love Is A Miracle
TTITLE14=Broken Promise Land
TTITLE15=Too Good A Memory
TTITLE16=Friends In Low Places
TTITLE17=Lucky Man
TTITLE18=Hey You There In The Mirror
TTITLE19=Danger At My Door
EXTD=
EXTT0=
EXTT1=
EXTT2=
EXTT3=
EXTT4=
EXTT5=
EXTT6=
EXTT7=
EXTT8=
EXTT9=
EXTT10=
EXTT11=
EXTT12=
EXTT13=
EXTT14=
EXTT15=
EXTT16=
EXTT17=
EXTT18=
EXTT19=
PLAYORDER=
